<svg width="24" height="24" viewBox="0 0 24 24" fill="none" xmlns="http://www.w3.org/2000/svg">
<g id="Frame">
<path id="Vector" d="M3 17.46V20.5C3 20.78 3.22 21 3.5 21H6.54C6.67 21 6.8 20.95 6.89 20.85L17.81 9.94L14.06 6.19L3.15 17.1C3.05 17.2 3 17.32 3 17.46ZM20.71 7.04C21.1 6.65 21.1 6.02 20.71 5.63L18.37 3.29C18.2775 3.19728 18.1676 3.12372 18.0466 3.07354C17.9257 3.02335 17.796 2.99751 17.665 2.99751C17.534 2.99751 17.4043 3.02335 17.2834 3.07354C17.1624 3.12372 17.0525 3.19728 16.96 3.29L15.13 5.12L18.88 8.87L20.71 7.04Z" fill="#49454F"/>
</g>
</svg>
