<svg width="24" height="24" viewBox="0 0 24 24" fill="none" xmlns="http://www.w3.org/2000/svg">
<g id="Frame" clip-path="url(#clip0_634_933)">
<path id="Vector" d="M22 3H6.99999C6.30999 3 5.76999 3.35 5.40999 3.88L0.369987 11.45C0.149987 11.79 0.149987 12.22 0.369987 12.56L5.40999 20.12C5.76999 20.64 6.30999 21 6.99999 21H22C23.1 21 24 20.1 24 19V5C24 3.9 23.1 3 22 3ZM18.3 16.3C17.91 16.69 17.28 16.69 16.89 16.3L14 13.41L11.11 16.3C10.72 16.69 10.09 16.69 9.69999 16.3C9.60727 16.2075 9.53371 16.0976 9.48352 15.9766C9.43334 15.8557 9.4075 15.726 9.4075 15.595C9.4075 15.464 9.43334 15.3343 9.48352 15.2134C9.53371 15.0924 9.60727 14.9825 9.69999 14.89L12.59 12L9.69999 9.11C9.60727 9.01749 9.53371 8.90761 9.48352 8.78663C9.43334 8.66566 9.4075 8.53597 9.4075 8.405C9.4075 8.27403 9.43334 8.14434 9.48352 8.02337C9.53371 7.90239 9.60727 7.79251 9.69999 7.7C10.09 7.31 10.72 7.31 11.11 7.7L14 10.59L16.89 7.7C17.28 7.31 17.91 7.31 18.3 7.7C18.69 8.09 18.69 8.72 18.3 9.11L15.41 12L18.3 14.89C18.68 15.27 18.68 15.91 18.3 16.3Z" fill="#49454F"/>
</g>
<defs>
<clipPath id="clip0_634_933">
<rect width="24" height="24" fill="white"/>
</clipPath>
</defs>
</svg>
